/* XPM */
static char * moon_xpm[] = {
"64 64 4 1",
" 	c None",
".	c #C0C0C0",
"+	c #808080",
"@	c #000000",
"                                                                ",
"                                                                ",
"                                                                ",
"                                                                ",
"                                                                ",
"                                                                ",
"                                                                ",
"                                                                ",
"                                                                ",
"                                                                ",
"                                                                ",
"                                                                ",
"                                                                ",
"                                                                ",
"                                                                ",
"                                                                ",
"                          ..........++                          ",
"                          ..........++                          ",
"                      ..............++++++                      ",
"                      ..............++++++                      ",
"                    ..................++++++                    ",
"                    ..................++++++                    ",
"                  ......................++++++                  ",
"                  ......................++++++                  ",
"                  ........................++++@@                ",
"                  ........................++++@@                ",
"                ..........................++++++                ",
"                ..........................++++++                ",
"                ..........................++++++@@              ",
"                ..........................++++++@@              ",
"                ..........................++++++@@              ",
"                ..........................++++++@@              ",
"                ..........................++++++@@              ",
"                ..........................++++++@@              ",
"                ..........................++++++@@              ",
"                ..........................++++++@@              ",
"                  ......................++++++@@@@              ",
"                  ......................++++++@@@@              ",
"                  ....................++++++++@@                ",
"                  ....................++++++++@@                ",
"                    ++++............++++++++@@@@                ",
"                    ++++............++++++++@@@@                ",
"                      ++++++++++++++++++++@@@@                  ",
"                      ++++++++++++++++++++@@@@                  ",
"                        @@++++++++++++@@@@@@                    ",
"                        @@++++++++++++@@@@@@                    ",
"                            @@@@@@@@@@@@                        ",
"                            @@@@@@@@@@@@                        ",
"                                                                ",
"                                                                ",
"                                                                ",
"                                                                ",
"                                                                ",
"                                                                ",
"                                                                ",
"                                                                ",
"                                                                ",
"                                                                ",
"                                                                ",
"                                                                ",
"                                                                ",
"                                                                ",
"                                                                ",
"                                                                "};
