/* XPM */
static char * rain_xpm[] = {
"64 64 4 1",
" 	c None",
".	c #000000",
"+	c #C0C0C0",
"@	c #00FFFF",
"                                                                ",
"                                                                ",
"                                                                ",
"                                                                ",
"                                                                ",
"                                                                ",
"                                                                ",
"                                                                ",
"                              ......                            ",
"                              ......                            ",
"                            ..++++++..                          ",
"                            ..++++++..                          ",
"                  ......  ..++++++++++..                        ",
"                  ......  ..++++++++++..                        ",
"              ....++++++..++++++++++++++......                  ",
"              ....++++++..++++++++++++++......                  ",
"            ..++++++++++++++++++++++++++++++++..  ......        ",
"            ..++++++++++++++++++++++++++++++++..  ......        ",
"            ..++++++++++++++++++++++++++++++++++..++++++..      ",
"            ..++++++++++++++++++++++++++++++++++..++++++..      ",
"      ........++++++++++++++++++++++++++++++++++++++++++++..    ",
"      ........++++++++++++++++++++++++++++++++++++++++++++..    ",
"    ..++++++++..++++++++++++++++++++++++++++++++++++++++++++..  ",
"    ..++++++++..++++++++++++++++++++++++++++++++++++++++++++..  ",
"  ..++++++++++++..++++++++++++++++++++++++++++++++++++++++++....",
"  ..++++++++++++..++++++++++++++++++++++++++++++++++++++++++....",
"..++++++++++++++++++++++++++++++++++++++++++++++++++++++++++....",
"..++++++++++++++++++++++++++++++++++++++++++++++++++++++++++....",
"..++++++++++++++++++++++++++++++++++++++++++....++++++++++++....",
"..++++++++++++++++++++++++++++++++++++++++++....++++++++++++....",
"..++++++++++++++++++++++++++++++++++++++++++++++..++++++++....  ",
"..++++++++++++++++++++++++++++++++++++++++++++++..++++++++....  ",
"  ..++++++++++++++++++++++++++++++++++++++++++++++..++++......  ",
"  ..++++++++++++++++++++++++++++++++++++++++++++++..++++......  ",
"    ..++++++++++++++++++++++++++++++++++++++++++++..........    ",
"    ..++++++++++++++++++++++++++++++++++++++++++++..........    ",
"      ..........++++++++++++++++++++++++++++++++++....@@        ",
"      ..........++++++++++++++++++++++++++++++++++....@@        ",
"        ............++++++++++++++++++++++++++++..@@    ..      ",
"        ............++++++++++++++++++++++++++++..@@    ..      ",
"         @@  @@     ..................................@@        ",
"         @@  @@     ..................................@@        ",
"           ..  ..@@   @@........................  @@    ..      ",
"           ..  ..@@   @@........................  @@    ..      ",
"         @@  @@    ..   ..@@  @@  @@  @@  @@  @@    ..@@        ",
"         @@  @@    ..   ..@@  @@  @@  @@  @@  @@    ..@@        ",
"           ..  ..@@   @@    ..  ..  ..  ..  ..  ..@@    ..      ",
"           ..  ..@@   @@    ..  ..  ..  ..  ..  ..@@    ..      ",
"         @@  @@    ..   ..@@  @@  @@  @@  @@  @@    ..          ",
"         @@  @@    ..   ..@@  @@  @@  @@  @@  @@    ..          ",
"           ..  ..@@   @@    ..  ..  ..  ..  ..  ..@@            ",
"           ..  ..@@   @@    ..  ..  ..  ..  ..  ..@@            ",
"                   ..   ..@@  @@  @@  @@  @@  @@    ..          ",
"                   ..   ..@@  @@  @@  @@  @@  @@    ..          ",
"                            ..  ..  ..  ..  ..  ..              ",
"                            ..  ..  ..  ..  ..  ..              ",
"                                                                ",
"                                                                ",
"                                                                ",
"                                                                ",
"                                                                ",
"                                                                ",
"                                                                ",
"                                                                "};
