/* XPM */
static char * sun_xpm[] = {
"64 64 4 1",
" 	c None",
".	c #FFFF00",
"+	c #000000",
"@	c #808000",
"                                                                ",
"                                                                ",
"                              ....                              ",
"                              ....                              ",
"                              ....++                            ",
"                              ....++                            ",
"                ..            ......          ..                ",
"                ..            ......          ..                ",
"                ....        ........++      ....++              ",
"                ....        ........++      ....++              ",
"                ........    ........++  ........++              ",
"                ........    ........++  ........++              ",
"                  ........    ++++++++........++++              ",
"                  ........    ++++++++........++++              ",
"      ....        ....++++++            ++....++      ....      ",
"      ....        ....++++++            ++....++      ....      ",
"      ........    ..++++  ..........@@      ..++  ........++    ",
"      ........    ..++++  ..........@@      ..++  ........++    ",
"        ........    ++..............@@@@@@    ++........++++    ",
"        ........    ++..............@@@@@@    ++........++++    ",
"          ......++  ..................@@@@@@    ......++++      ",
"          ......++  ..................@@@@@@    ......++++      ",
"            ..++++......................@@@@@@    ..++++        ",
"            ..++++......................@@@@@@    ..++++        ",
"              ++  ........................@@@@++    ++          ",
"              ++  ........................@@@@++    ++          ",
"          ..    ..........................@@@@@@    ....        ",
"          ..    ..........................@@@@@@    ....        ",
"      ......++  ..........................@@@@@@++  ..........  ",
"      ......++  ..........................@@@@@@++  ..........  ",
"  ..........++  ..........................@@@@@@++  ..........++",
"  ..........++  ..........................@@@@@@++  ..........++",
"  ..........++  ..........................@@@@@@++  ......++++++",
"  ..........++  ..........................@@@@@@++  ......++++++",
"    ++++....++  ..........................@@@@@@++  ..++++++    ",
"    ++++....++  ..........................@@@@@@++  ..++++++    ",
"          ++++    ......................@@@@@@++++    ++        ",
"          ++++    ......................@@@@@@++++    ++        ",
"            ..    ....................@@@@@@@@++  ..            ",
"            ..    ....................@@@@@@@@++  ..            ",
"          ......    @@@@............@@@@@@@@++++......          ",
"          ......    @@@@............@@@@@@@@++++......          ",
"        ........++    @@@@@@@@@@@@@@@@@@@@++++  ........        ",
"        ........++    @@@@@@@@@@@@@@@@@@@@++++  ........        ",
"      ........++++..    ++@@@@@@@@@@@@++++++..    ........      ",
"      ........++++..    ++@@@@@@@@@@@@++++++..    ........      ",
"      ....++++++  ....      ++++++++++++  ....++    ++....++    ",
"      ....++++++  ....      ++++++++++++  ....++    ++....++    ",
"        ++++      ........            ........++        ++++    ",
"        ++++      ........            ........++        ++++    ",
"                ........++++........    ........                ",
"                ........++++........    ........                ",
"                ....++++++  ........++    ++....++              ",
"                ....++++++  ........++    ++....++              ",
"                ..++++      ......++++        ..++              ",
"                ..++++      ......++++        ..++              ",
"                  ++          ....++            ++              ",
"                  ++          ....++            ++              ",
"                              ....++                            ",
"                              ....++                            ",
"                                ++++                            ",
"                                ++++                            ",
"                                                                ",
"                                                                "};
